<svg xmlns="http://www.w3.org/2000/svg" width="100%" height="100%" preserveAspectRatio="xMidYMid meet" viewBox="7.799884826908965e-8 6.999092647674843e-7 300 50.67030715942383" overflow="visible"><defs id="SvgjsDefs1024"></defs><g id="SvgjsG1025" transform="scale(0.5884233025204423)" opacity="1"><g id="SvgjsG1026" class="YEgqTVH-0" transform="translate(-15.786835033508718, -2.8683917731716804) scale(1.4351675677821287)" light-content="false" non-strokable="false" fill="#ffffff"><path d="M51.366 32.926A.994.994 0 0 0 52 32V9a.999.999 0 0 0-1.806-.591L40.28 21.927 32.935 2.644a1 1 0 0 0-1.87 0L23.72 21.927 13.807 8.409A1 1 0 0 0 12 9v23c0 .422.263.78.634.926A20.693 20.693 0 0 0 11 41c0 11.58 9.421 21 21 21s21-9.42 21-21c0-2.795-.553-5.504-1.634-8.074zM38 36.882l-5-2.5V33h10v1.382l-5 2.5zM35.198 46h-6.396l-1.656-7.455L32 36.118l4.854 2.427L35.198 46zM26 36.882l-5-2.5V33h10v1.382l-5 2.5zm-7-2.5l-5.598 2.799c.297-1.431.749-2.83 1.38-4.181H19v1.382zM45 33h4.218a18.892 18.892 0 0 1 1.38 4.181L45 34.382V33zM14 12.055l9.193 12.537a1.002 1.002 0 0 0 1.741-.235L32 5.809l7.065 18.547a1.002 1.002 0 0 0 1.741.235L50 12.055V31H14V12.055zm-.923 27.525L20 36.118l5.127 2.563 1.778 8L23.586 50h-8.313A18.882 18.882 0 0 1 13 41c0-.478.042-.948.077-1.42zM16.537 52h6.33l-.657 5.253A19.113 19.113 0 0 1 16.537 52zm7.563 6.258l.849-6.794L28.414 48h7.172l3.464 3.464.849 6.794C37.49 59.365 34.821 60 32 60s-5.49-.635-7.9-1.742zm17.689-1.005L41.133 52h6.33a19.105 19.105 0 0 1-5.674 5.253zM48.727 50h-8.313l-3.319-3.319 1.778-8L44 36.118l6.923 3.461c.035.473.077.943.077 1.421 0 3.255-.825 6.319-2.273 9z"></path><path d="M32 25c1.683 0 3-1.757 3-4s-1.317-4-3-4-3 1.757-3 4 1.317 4 3 4zm0-6c.408 0 1 .779 1 2s-.592 2-1 2-1-.779-1-2 .592-2 1-2zm2 8h2v2h-2zm4 0h2v2h-2zm4 0h2v2h-2zm4 0h2v2h-2zm-30 0h2v2h-2zm4 0h2v2h-2zm4 0h2v2h-2zm4 0h2v2h-2z"></path></g><g id="SvgjsG1027" class="text" transform="translate(298.5170542894731, 58.265998931884766) scale(1)" light-content="false" fill="#ffffff"><path d="M-188.82 -6.06L-189.3 -6.72L-202.26 -6.72L-202.44 -12.24L-201.96 -38.64L-210.24 -38.64L-209.82 -11.52L-210.24 0L-189.36 0Z M-163.86 -12.96L-162.96 -13.92C-162.76 -15.32 -162.66 -16.48 -162.66 -17.4C-162.66 -20.88 -163.63 -23.59 -165.57 -25.53C-167.51 -27.47 -170.26 -28.44 -173.82 -28.44C-177.98 -28.44 -181.28 -27.13 -183.72 -24.51C-186.16 -21.89 -187.38 -18.34 -187.38 -13.86C-187.38 -9.34 -186.13 -5.8 -183.63 -3.24C-181.13 -0.68 -177.68 0.6 -173.28 0.6C-170.6 0.6 -167.74 0.04 -164.7 -1.08L-163.5 -7.02L-164.16 -7.44C-167.2 -6.04 -169.96 -5.34 -172.44 -5.34C-177.16 -5.34 -179.7 -7.84 -180.06 -12.84ZM-169.62 -18.3L-169.74 -17.46L-179.88 -17.22C-179.52 -19.14 -178.82 -20.61 -177.78 -21.63C-176.74 -22.65 -175.44 -23.16 -173.88 -23.16C-172.48 -23.16 -171.42 -22.75 -170.7 -21.93C-169.98 -21.11 -169.62 -19.9 -169.62 -18.3Z M-138.93 -26.37C-140.67 -27.75 -143.08 -28.44 -146.16 -28.44C-148.12 -28.44 -150.08 -28.15 -152.04 -27.57C-154 -26.99 -155.84 -26.16 -157.56 -25.08L-156.66 -19.8L-156.06 -19.44C-154.34 -20.64 -152.79 -21.52 -151.41 -22.08C-150.03 -22.64 -148.72 -22.92 -147.48 -22.92C-144.92 -22.92 -143.64 -21.62 -143.64 -19.02L-143.64 -16.56L-152.82 -14.82C-154.9 -14.42 -156.45 -13.65 -157.47 -12.51C-158.49 -11.37 -159 -9.8 -159 -7.8C-159 -5.24 -158.18 -3.22 -156.54 -1.74C-154.9 -0.26 -152.64 0.5 -149.76 0.54C-147.64 -0.3 -145.58 -1.78 -143.58 -3.9L-143.16 -3.9C-142.88 -2.58 -142.34 -1.55 -141.54 -0.81C-140.74 -0.07 -139.74 0.36 -138.54 0.48C-136.9 0.32 -135.44 -0.18 -134.16 -1.02L-133.44 -5.22L-134.04 -5.7C-134.68 -5.54 -135.2 -5.46 -135.6 -5.46C-136.12 -5.46 -136.48 -5.59 -136.68 -5.85C-136.88 -6.11 -136.98 -6.58 -136.98 -7.26C-136.98 -8.1 -136.94 -9.11 -136.86 -10.29C-136.78 -11.47 -136.72 -12.62 -136.68 -13.74C-136.44 -17.58 -136.32 -19.86 -136.32 -20.58C-136.32 -23.06 -137.19 -24.99 -138.93 -26.37ZM-150.06 -11.16L-143.7 -12.54L-143.82 -8.1C-145.54 -6.26 -147.18 -5.34 -148.74 -5.34C-149.74 -5.34 -150.52 -5.63 -151.08 -6.21C-151.64 -6.79 -151.92 -7.6 -151.92 -8.64C-151.92 -9.4 -151.77 -9.97 -151.47 -10.35C-151.17 -10.73 -150.7 -11 -150.06 -11.16Z M-106.08 -23.22C-104.08 -23.54 -102.54 -23.84 -101.46 -24.12L-101.46 -29.1L-102.06 -29.64C-105.06 -28.56 -108 -27.76 -110.88 -27.24C-112.64 -27.96 -114.6 -28.32 -116.76 -28.32C-120.48 -28.32 -123.42 -27.44 -125.58 -25.68C-127.74 -23.92 -128.82 -21.48 -128.82 -18.36C-128.82 -16.6 -128.45 -15.07 -127.71 -13.77C-126.97 -12.47 -125.88 -11.42 -124.44 -10.62L-124.44 -10.32C-126.08 -9.2 -127.44 -7.98 -128.52 -6.66C-128.52 -5.22 -128.14 -4.07 -127.38 -3.21C-126.62 -2.35 -125.56 -1.68 -124.2 -1.2L-124.2 -0.9C-126.28 0.38 -127.94 1.88 -129.18 3.6C-129.18 6.04 -128.2 8 -126.24 9.48C-124.28 10.96 -121.48 11.7 -117.84 11.7C-115.2 11.7 -112.84 11.28 -110.76 10.44C-108.68 9.6 -107.05 8.43 -105.87 6.93C-104.69 5.43 -104.1 3.74 -104.1 1.86C-104.1 0.02 -104.67 -1.4 -105.81 -2.4C-106.95 -3.4 -108.31 -4.1 -109.89 -4.5C-111.47 -4.9 -113.44 -5.24 -115.8 -5.52C-117.88 -5.8 -119.4 -6.08 -120.36 -6.36C-121.32 -6.64 -121.8 -7.14 -121.8 -7.86C-121.8 -8.14 -121.74 -8.38 -121.62 -8.58C-121.5 -8.78 -121.26 -9.06 -120.9 -9.42C-119.7 -9.22 -118.54 -9.12 -117.42 -9.12C-113.7 -9.12 -110.75 -10.01 -108.57 -11.79C-106.39 -13.57 -105.3 -15.96 -105.3 -18.96C-105.3 -20.44 -105.6 -21.78 -106.2 -22.98ZM-113.46 -15.18C-114.3 -14.34 -115.54 -13.92 -117.18 -13.92C-118.74 -13.92 -119.92 -14.33 -120.72 -15.15C-121.52 -15.97 -121.92 -17.18 -121.92 -18.78C-121.92 -21.86 -120.24 -23.4 -116.88 -23.4C-113.76 -23.4 -112.2 -21.88 -112.2 -18.84C-112.2 -17.24 -112.62 -16.02 -113.46 -15.18ZM-112.53 1.08C-111.39 1.48 -110.82 2.22 -110.82 3.3C-110.82 4.46 -111.39 5.37 -112.53 6.03C-113.67 6.69 -115.18 7.02 -117.06 7.02C-118.9 7.02 -120.3 6.7 -121.26 6.06C-122.22 5.42 -122.7 4.58 -122.7 3.54C-122.7 2.86 -122.46 2.22 -121.98 1.62C-121.5 1.02 -120.78 0.4 -119.82 -0.24L-117.78 0.06C-115.42 0.34 -113.67 0.68 -112.53 1.08Z M-71.64 -5.22L-72.18 -5.7C-72.82 -5.54 -73.36 -5.46 -73.8 -5.46C-74.28 -5.46 -74.63 -5.6 -74.85 -5.88C-75.07 -6.16 -75.18 -6.62 -75.18 -7.26L-74.64 -28.02L-82.26 -27.36L-82.26 -8.4C-83.98 -6.84 -85.72 -6.06 -87.48 -6.06C-88.68 -6.06 -89.58 -6.42 -90.18 -7.14C-90.78 -7.86 -91.06 -8.92 -91.02 -10.32L-90.84 -28.02L-98.58 -27.36L-98.28 -14.76L-98.4 -7.68C-98.44 -5.08 -97.67 -3.09 -96.09 -1.71C-94.51 -0.33 -92.2 0.36 -89.16 0.36C-86.72 -0.32 -84.36 -1.78 -82.08 -4.02L-81.54 -4.02C-81.14 -2.66 -80.56 -1.62 -79.8 -0.9C-79.04 -0.18 -78.08 0.28 -76.92 0.48C-75.36 0.44 -73.84 -0.06 -72.36 -1.02Z M-45.36 -12.96L-44.46 -13.92C-44.26 -15.32 -44.16 -16.48 -44.16 -17.4C-44.16 -20.88 -45.13 -23.59 -47.07 -25.53C-49.01 -27.47 -51.76 -28.44 -55.32 -28.44C-59.48 -28.44 -62.78 -27.13 -65.22 -24.51C-67.66 -21.89 -68.88 -18.34 -68.88 -13.86C-68.88 -9.34 -67.63 -5.8 -65.13 -3.24C-62.63 -0.68 -59.18 0.6 -54.78 0.6C-52.1 0.6 -49.24 0.04 -46.2 -1.08L-45 -7.02L-45.66 -7.44C-48.7 -6.04 -51.46 -5.34 -53.94 -5.34C-58.66 -5.34 -61.2 -7.84 -61.56 -12.84ZM-51.12 -18.3L-51.24 -17.46L-61.38 -17.22C-61.02 -19.14 -60.32 -20.61 -59.28 -21.63C-58.24 -22.65 -56.94 -23.16 -55.38 -23.16C-53.98 -23.16 -52.92 -22.75 -52.2 -21.93C-51.48 -21.11 -51.12 -19.9 -51.12 -18.3Z M-2.94 -36.78C-5.94 -38.34 -9.32 -39.12 -13.08 -39.12C-18.96 -39.12 -23.51 -37.36 -26.73 -33.84C-29.95 -30.32 -31.56 -25.36 -31.56 -18.96C-31.56 -12.68 -30.05 -7.86 -27.03 -4.5C-24.01 -1.14 -19.62 0.54 -13.86 0.54C-10.5 0.54 -7.3 -0.16 -4.26 -1.56L-3.6 -8.46L-4.32 -8.88C-5.6 -8.08 -7.03 -7.45 -8.61 -6.99C-10.19 -6.53 -11.72 -6.3 -13.2 -6.3C-16.4 -6.3 -18.83 -7.43 -20.49 -9.69C-22.15 -11.95 -22.98 -15.34 -22.98 -19.86C-22.98 -28.22 -19.8 -32.4 -13.44 -32.4C-11.92 -32.4 -10.44 -32.16 -9 -31.68C-7.56 -31.2 -6.24 -30.54 -5.04 -29.7L-4.38 -30Z M19.08 -17.4L18.66 0L26.64 0L26.34 -12.24L26.52 -20.22C26.56 -22.82 25.79 -24.81 24.21 -26.19C22.63 -27.57 20.32 -28.26 17.28 -28.26C14.64 -27.38 12.22 -25.94 10.02 -23.94L9.66 -23.94L9.96 -42.12L1.98 -41.52L2.34 -11.58L1.92 0L9.9 0L9.48 -12.3L9.6 -19.26C11.64 -20.98 13.56 -21.84 15.36 -21.84C16.6 -21.84 17.54 -21.46 18.18 -20.7C18.82 -19.94 19.12 -18.84 19.08 -17.4Z M51.87 -26.37C50.13 -27.75 47.72 -28.44 44.64 -28.44C42.68 -28.44 40.72 -28.15 38.76 -27.57C36.8 -26.99 34.96 -26.16 33.24 -25.08L34.14 -19.8L34.74 -19.44C36.46 -20.64 38.01 -21.52 39.39 -22.08C40.77 -22.64 42.08 -22.92 43.32 -22.92C45.88 -22.92 47.16 -21.62 47.16 -19.02L47.16 -16.56L37.98 -14.82C35.9 -14.42 34.35 -13.65 33.33 -12.51C32.31 -11.37 31.8 -9.8 31.8 -7.8C31.8 -5.24 32.62 -3.22 34.26 -1.74C35.9 -0.26 38.16 0.5 41.04 0.54C43.16 -0.3 45.22 -1.78 47.22 -3.9L47.64 -3.9C47.92 -2.58 48.46 -1.55 49.26 -0.81C50.06 -0.07 51.06 0.36 52.26 0.48C53.9 0.32 55.36 -0.18 56.64 -1.02L57.36 -5.22L56.76 -5.7C56.12 -5.54 55.6 -5.46 55.2 -5.46C54.68 -5.46 54.32 -5.59 54.12 -5.85C53.92 -6.11 53.82 -6.58 53.82 -7.26C53.82 -8.1 53.86 -9.11 53.94 -10.29C54.02 -11.47 54.08 -12.62 54.12 -13.74C54.36 -17.58 54.48 -19.86 54.48 -20.58C54.48 -23.06 53.61 -24.99 51.87 -26.37ZM40.74 -11.16L47.1 -12.54L46.98 -8.1C45.26 -6.26 43.62 -5.34 42.06 -5.34C41.06 -5.34 40.28 -5.63 39.72 -6.21C39.16 -6.79 38.88 -7.6 38.88 -8.64C38.88 -9.4 39.03 -9.97 39.33 -10.35C39.63 -10.73 40.1 -11 40.74 -11.16Z M95.58 0L103.56 0L103.2 -12.24L103.38 -20.22C103.46 -22.82 102.71 -24.81 101.13 -26.19C99.55 -27.57 97.24 -28.26 94.2 -28.26C91.28 -27.38 88.68 -25.88 86.4 -23.76L86.04 -23.76C84.8 -26.76 81.94 -28.26 77.46 -28.26C74.82 -27.38 72.4 -25.94 70.2 -23.94L69.78 -23.94L69.78 -28.02L62.28 -27.36L62.58 -11.52L62.16 0L70.08 0L69.72 -12.3L69.72 -19.32C71.84 -21 73.78 -21.84 75.54 -21.84C76.78 -21.84 77.73 -21.46 78.39 -20.7C79.05 -19.94 79.36 -18.84 79.32 -17.4L78.84 0L86.82 0L86.46 -12.24L86.64 -19.44C88.6 -21.04 90.48 -21.84 92.28 -21.84C94.8 -21.84 96.06 -20.36 96.06 -17.4Z M133.38 -24.72C131.5 -27.08 128.82 -28.26 125.34 -28.26C124.06 -27.78 122.9 -27.21 121.86 -26.55C120.82 -25.89 119.74 -25.02 118.62 -23.94L118.2 -23.94L118.26 -28.02L110.64 -27.36L111 -11.52L110.58 11.1L118.5 11.1L118.32 0.24C119.72 0.48 121.06 0.6 122.34 0.6C126.74 0.6 130.15 -0.73 132.57 -3.39C134.99 -6.05 136.2 -9.82 136.2 -14.7C136.2 -19.02 135.26 -22.36 133.38 -24.72ZM127.14 -6.84C126.06 -5.36 124.48 -4.62 122.4 -4.62C121.08 -4.62 119.7 -4.92 118.26 -5.52L118.14 -12.3L118.2 -19.26C119.96 -20.98 121.7 -21.84 123.42 -21.84C125.18 -21.84 126.51 -21.13 127.41 -19.71C128.31 -18.29 128.76 -16.18 128.76 -13.38C128.76 -10.5 128.22 -8.32 127.14 -6.84Z M142.2 -11.52L141.78 0L149.76 0L149.4 -12.3L149.76 -28.02L141.9 -27.36ZM148.89 -40.5C148.19 -41.22 147.22 -41.58 145.98 -41.58C144.62 -41.58 143.55 -41.18 142.77 -40.38C141.99 -39.58 141.6 -38.52 141.6 -37.2C141.6 -35.88 141.95 -34.86 142.65 -34.14C143.35 -33.42 144.36 -33.06 145.68 -33.06C147 -33.06 148.04 -33.46 148.8 -34.26C149.56 -35.06 149.94 -36.14 149.94 -37.5C149.94 -38.78 149.59 -39.78 148.89 -40.5Z M178.26 -24.84C176.1 -27.24 172.98 -28.44 168.9 -28.44C164.54 -28.44 161.2 -27.15 158.88 -24.57C156.56 -21.99 155.4 -18.26 155.4 -13.38C155.4 -8.86 156.48 -5.4 158.64 -3C160.8 -0.6 163.92 0.6 168 0.6C172.36 0.6 175.7 -0.69 178.02 -3.27C180.34 -5.85 181.5 -9.58 181.5 -14.46C181.5 -18.98 180.42 -22.44 178.26 -24.84ZM164.19 -21.12C165.05 -22.4 166.44 -23.04 168.36 -23.04C170.32 -23.04 171.75 -22.25 172.65 -20.67C173.55 -19.09 174 -16.48 174 -12.84C174 -9.96 173.57 -7.89 172.71 -6.63C171.85 -5.37 170.46 -4.74 168.54 -4.74C166.54 -4.74 165.1 -5.52 164.22 -7.08C163.34 -8.64 162.9 -11.26 162.9 -14.94C162.9 -17.78 163.33 -19.84 164.19 -21.12Z M203.76 -17.4L203.28 0L211.32 0L210.96 -12.24L211.14 -20.22C211.22 -22.82 210.46 -24.81 208.86 -26.19C207.26 -27.57 204.94 -28.26 201.9 -28.26C199.3 -27.38 196.9 -25.94 194.7 -23.94L194.28 -23.94L194.28 -28.02L186.72 -27.36L187.02 -11.52L186.6 0L194.58 0L194.22 -12.3L194.22 -19.26C196.26 -20.98 198.18 -21.84 199.98 -21.84C201.22 -21.84 202.17 -21.45 202.83 -20.67C203.49 -19.89 203.8 -18.8 203.76 -17.4Z"></path></g></g></svg>